<?xml version="1.0" encoding="UTF-8"?>
<svg version="1.1" xmlns="http://www.w3.org/2000/svg" width="960" height="261">
<path d="M0 0 C11.55 0 23.1 0 35 0 C35.33 36.63 35.66 73.26 36 111 C43.91099851 103.12205874 43.91099851 103.12205874 51.33300781 94.92089844 C54.24707499 91.56297802 57.31995812 88.35420856 60.375 85.125 C64.50073616 80.74512414 68.61429913 76.3610432 72.625 71.875 C73.60569458 70.81974121 73.60569458 70.81974121 74.60620117 69.74316406 C76.39866801 67.68909396 77.939774 65.70500101 79.50415039 63.4921875 C83.7491355 57.83112162 87.69608782 52.97929561 94.99316406 51.86376953 C100.61978784 51.45627511 106.19138035 51.7723433 111.8125 52.125 C113.77646846 52.19536756 115.74068164 52.25922096 117.70507812 52.31640625 C122.47619101 52.46931089 127.23534077 52.70991905 132 53 C131.05473397 54.27888449 130.1068838 55.5558592 129.15795898 56.83203125 C128.63040512 57.54335205 128.10285126 58.25467285 127.55931091 58.98754883 C125.58093279 61.54084935 123.39172876 63.76514842 121.0625 66 C117.40015699 69.58010477 113.97244829 73.2476541 110.64453125 77.13671875 C108.48539209 79.58305931 106.16832989 81.84425414 103.84033203 84.12841797 C102.0771015 85.92158927 100.43061259 87.7679496 98.79296875 89.67578125 C94.25021923 94.90168717 89.47210101 99.89528731 84.69726562 104.90820312 C81.29891771 108.49409069 78.00195077 112.06721178 75 116 C76.27242652 118.66148909 77.65600662 121.07233827 79.36328125 123.4765625 C79.83113037 124.137771 80.29897949 124.79897949 80.78100586 125.48022461 C81.28639893 126.18800049 81.79179199 126.89577637 82.3125 127.625 C82.84302979 128.37209229 83.37355957 129.11918457 83.92016602 129.88891602 C89.35853767 137.53356244 94.85438418 145.1367904 100.35888672 152.73388672 C103.07648169 156.48644794 105.78797486 160.2434125 108.5 164 C111.78388543 168.54779486 115.06845048 173.09509379 118.35546875 177.640625 C120.53872701 180.65982838 122.71958128 183.6807435 124.8984375 186.703125 C126.93762393 189.53171506 128.98516401 192.35395303 131.0390625 195.171875 C131.96366691 196.44782592 132.8881528 197.72386273 133.8125 199 C134.23942139 199.58168945 134.66634277 200.16337891 135.10620117 200.76269531 C138 204.77332437 138 204.77332437 138 207 C102.63673496 209.66988302 102.63673496 209.66988302 94.08984375 205.62158203 C89.98277037 202.02789282 88.0369487 197.44653619 86.07568359 192.44189453 C84.2105519 188.20788473 81.35702323 184.72096811 78.5625 181.0625 C77.472407 179.5655172 76.38647427 178.06549622 75.3046875 176.5625 C74.76295898 175.81484375 74.22123047 175.0671875 73.66308594 174.296875 C71.39394447 171.16298144 69.12989839 168.02542158 66.86572266 164.88793945 C61.59234189 157.58084725 56.30873409 150.2814661 51 143 C47.16751036 144.53999584 45.05935935 146.91164008 42.375 150 C38 155 38 155 36 157 C35.66930575 159.22196327 35.66930575 159.22196327 35.68115234 161.81689453 C35.66128265 162.81778107 35.64141296 163.8186676 35.62094116 164.84988403 C35.60938995 165.93325043 35.59783875 167.01661682 35.5859375 168.1328125 C35.56657135 169.23978485 35.5472052 170.3467572 35.5272522 171.48727417 C35.46733246 175.03310369 35.42102127 178.57896545 35.375 182.125 C35.33683165 184.52475397 35.29778061 186.92449408 35.2578125 189.32421875 C35.15995468 195.21607488 35.08048326 201.10777807 35 207 C23.45 207 11.9 207 0 207 C0 138.69 0 70.38 0 0 Z " fill="#1B1718" transform="translate(377,4)"/>
<path d="M0 0 C12.64653313 12.64653313 17.00935226 29.66394867 17.06134033 47.15936279 C17.0505545 48.60946747 17.0505545 48.60946747 17.03955078 50.08886719 C17.03984283 51.14400513 17.04013489 52.19914307 17.04043579 53.28625488 C17.03905736 56.72738255 17.02356699 60.16828579 17.0078125 63.609375 C17.00407707 66.01360964 17.00123261 68.41784581 16.99923706 70.82208252 C16.99164231 77.11515591 16.97202994 83.40813532 16.9498291 89.70117188 C16.92928064 96.13670582 16.92021618 102.57225512 16.91015625 109.0078125 C16.88877978 121.6094227 16.85363194 134.21093879 16.8125 146.8125 C5.2625 146.8125 -6.2875 146.8125 -18.1875 146.8125 C-18.20208252 143.7499292 -18.21666504 140.6873584 -18.23168945 137.53198242 C-18.28214396 127.38583357 -18.34875817 117.23983645 -18.42321491 107.09383678 C-18.46784293 100.9454652 -18.5071158 94.79715874 -18.53393555 88.64868164 C-18.56004389 82.7092839 -18.60049969 76.77013774 -18.65068626 70.83089638 C-18.66730408 68.57086644 -18.67884989 66.31079303 -18.68511391 64.05071068 C-18.69481033 60.87232792 -18.72293596 57.69458147 -18.75512695 54.51635742 C-18.75369186 53.59277939 -18.75225677 52.66920135 -18.7507782 51.71763611 C-18.88167175 42.51219202 -20.74402219 33.37288584 -26.1875 25.8125 C-31.86481824 20.38139199 -38.20085714 18.82244891 -45.875 18.4375 C-54.16083393 18.64208849 -63.66458698 20.88529105 -69.69921875 26.875 C-80.83002904 41.36550369 -80.64475611 58.94963734 -80.69921875 76.3046875 C-80.71609835 78.34735164 -80.7342529 80.3900056 -80.75361633 82.43264771 C-80.80076642 87.76223569 -80.83080085 93.09178239 -80.85705566 98.42150879 C-80.88703936 103.87874501 -80.93350771 109.33583942 -80.97851562 114.79296875 C-81.06414992 125.46608724 -81.13014388 136.13919205 -81.1875 146.8125 C-92.7375 146.8125 -104.2875 146.8125 -116.1875 146.8125 C-116.1875 95.9925 -116.1875 45.1725 -116.1875 -7.1875 C-104.6375 -7.1875 -93.0875 -7.1875 -81.1875 -7.1875 C-80.6925 1.2275 -80.6925 1.2275 -80.1875 9.8125 C-78.4859375 7.770625 -78.4859375 7.770625 -76.75 5.6875 C-57.80473689 -15.44758337 -22.4597212 -15.41353416 0 0 Z " fill="#1B1718" transform="translate(334.1875,64.1875)"/>
<path d="M0 0 C12.54 0 25.08 0 38 0 C46.77252018 25.98859102 55.1180311 52.08460479 63.27606201 78.27168274 C66.15882095 87.52245025 69.073934 96.76285149 72 106 C80.82121473 80.03178692 89.11907125 53.91205635 97.27606201 27.72831726 C100.15883417 18.4775073 103.07610071 9.23789235 106 0 C117.88 0 129.76 0 142 0 C139.96918452 7.44632342 137.83815519 14.63994899 135.25390625 21.8828125 C134.89088409 22.9106636 134.52786194 23.93851471 134.15383911 24.99751282 C132.96029104 28.37461511 131.76137458 31.74978537 130.5625 35.125 C129.71611511 37.51685365 128.87017645 39.90886525 128.0246582 42.30102539 C126.70207864 46.04289097 125.37939411 49.78471789 124.05503845 53.5259552 C120.08683862 64.73814931 116.15412866 75.9626577 112.2253418 87.1887207 C108.53558595 97.73127257 104.83225229 108.26904453 101.12420654 118.80517578 C100.39127771 120.8880482 99.65871596 122.97104983 98.92657471 125.05419922 C96.99856637 130.539221 95.06349849 136.02162609 93.11538696 141.49954224 C92.55480352 143.07881118 91.99652866 144.65890226 91.44100952 146.23995972 C88.52549993 154.53096512 85.37960468 162.66761227 81.83203125 170.7109375 C81.50450867 171.45613144 81.17698608 172.20132538 80.83953857 172.96910095 C78.20776149 178.82150919 75.12656372 184.05948105 71 189 C70.45859375 189.65226563 69.9171875 190.30453125 69.359375 190.9765625 C61.51217548 199.59381431 50.37065883 203.09096659 39 204 C34.49885601 204.11614476 30.00223659 204.09440873 25.5 204.0625 C21.375 204.041875 17.25 204.02125 13 204 C13 195.09 13 186.18 13 177 C24 176.6875 24 176.6875 27.41796875 176.61206055 C34.19343642 176.36658124 40.88401699 176.10351908 45.953125 171.0546875 C47.34248169 168.7195639 48.71539859 166.39489113 50 164 C50.42667969 163.2265625 50.85335937 162.453125 51.29296875 161.65625 C54.30024273 155.66222951 54.12500211 151.61480174 52.14604187 145.25610352 C50.9788814 141.87201597 49.76666591 138.5071702 48.5390625 135.14453125 C48.07618749 133.8619029 47.61389078 132.57906572 47.15213013 131.29603577 C45.90933165 127.84830369 44.65813187 124.40367687 43.40519714 120.95961761 C42.0952039 117.35449089 40.7927892 113.74662712 39.48925781 110.13916016 C36.58572399 102.10922208 33.66992201 94.08377324 30.74967957 86.05989838 C30.02715184 84.07460525 29.30486612 82.08922425 28.5826416 80.1038208 C21.55336896 60.78424392 14.50132924 41.47295134 7.37890625 22.1875 C6.84597795 20.74236895 6.31309813 19.29722003 5.78027344 17.85205078 C4.83818596 15.29685561 3.89167821 12.74346029 2.94238281 10.19091797 C2.5450293 9.11471191 2.14767578 8.03850586 1.73828125 6.9296875 C1.39837158 6.01429199 1.05846191 5.09889648 0.70825195 4.15576172 C0 2 0 2 0 0 Z " fill="#1B1718" transform="translate(646,57)"/>
<path d="M0 0 C8.839713 7.6314069 13.89871508 16.56510012 17.1875 27.75 C17.1875 29.07 17.1875 30.39 17.1875 31.75 C6.2975 31.75 -4.5925 31.75 -15.8125 31.75 C-17.4625 28.45 -19.1125 25.15 -20.8125 21.75 C-22.87008341 19.50030455 -22.87008341 19.50030455 -25.1875 18.25 C-25.89648438 17.8065625 -26.60546875 17.363125 -27.3359375 16.90625 C-37.92272497 11.96352273 -53.14352508 11.74310875 -64.25 15.3125 C-68.90100861 17.4306345 -72.54961483 20.077646 -74.8125 24.75 C-75.84129358 29.39982297 -75.26605514 32.74839906 -73.3125 37.0625 C-67.85467774 42.92965893 -60.55720471 44.55297862 -52.9375 46.125 C-50.99339781 46.54905864 -49.04939153 46.9735572 -47.10546875 47.3984375 C-46.08630371 47.61725586 -45.06713867 47.83607422 -44.01708984 48.06152344 C4.38987397 58.46131301 4.38987397 58.46131301 16.1875 75.75 C21.92149809 86.57008678 22.05515815 100.78172294 18.5625 112.375 C16.5272208 117.54147796 13.88247009 121.63101695 10.1875 125.75 C9.37732422 126.73226562 9.37732422 126.73226562 8.55078125 127.734375 C-2.49559684 140.09865069 -19.78094616 145.28592235 -35.8125 146.75 C-56.13057435 147.79815463 -75.40193628 144.5969559 -91.8125 131.75 C-92.864375 130.986875 -93.91625 130.22375 -95 129.4375 C-104.80685824 120.06650212 -109.1999277 108.81286152 -111.8125 95.75 C-100.2625 95.75 -88.7125 95.75 -76.8125 95.75 C-75.4925 99.38 -74.1725 103.01 -72.8125 106.75 C-69.15650049 112.97873991 -62.753781 115.87794665 -56.03125 117.87109375 C-51.85784396 118.8462205 -47.83958813 119.13489609 -43.5625 119.125 C-42.82741211 119.12338867 -42.09232422 119.12177734 -41.33496094 119.12011719 C-33.41194519 118.94405017 -26.53274192 117.02769913 -19.75 112.875 C-15.55851245 108.27788462 -14.23490381 104.03896502 -14.4609375 97.92578125 C-15.1864213 93.4358426 -17.8271527 90.7353473 -20.9375 87.625 C-30.46160934 81.41362434 -41.73966869 79.95936853 -52.70385742 77.89819336 C-71.35866381 74.36082165 -91.35573367 69.82634815 -103.0625 53.5 C-109.04076449 43.86124736 -109.83629324 33.84296852 -108.8125 22.75 C-105.81011924 10.77127062 -97.62101872 1.5053242 -87.3125 -4.9375 C-60.69122605 -19.73838641 -24.29343526 -18.71518722 0 0 Z " fill="#1B1718" transform="translate(900.8125,68.25)"/>
<path d="M0 0 C8.59965637 7.25069066 15.15313456 17.01721744 18.15234375 27.93359375 C18.17712702 29.60007614 18.18013493 31.2671588 18.15234375 32.93359375 C13.70530165 33.18188248 9.26197481 33.36269207 4.81005859 33.48291016 C3.29827611 33.53303343 1.78697462 33.60116216 0.27685547 33.68798828 C-4.59354579 33.96088486 -9.07642679 34.04693645 -13.84765625 32.93359375 C-16.27689465 30.56913862 -17.40913781 28.56851104 -18.67749023 25.44091797 C-20.69851266 21.11045682 -24.63350829 18.92941423 -28.84765625 16.93359375 C-38.68545592 13.38513367 -52.91426046 12.89309488 -62.78515625 16.62109375 C-67.0679413 18.77783676 -71.65242888 21.543139 -73.84765625 25.93359375 C-74.40369904 30.49132155 -74.25459006 34.03494826 -72.34765625 38.24609375 C-66.88983399 44.11325268 -59.59236096 45.73657237 -51.97265625 47.30859375 C-50.02855406 47.73265239 -48.08454778 48.15715095 -46.140625 48.58203125 C-45.12145996 48.80084961 -44.10229492 49.01966797 -43.05224609 49.24511719 C4.76447212 59.51809794 4.76447212 59.51809794 16.15234375 75.93359375 C21.95021748 86.64551899 22.74476451 98.6166076 20.46875 110.50390625 C18.48866534 116.92891124 15.62559686 121.94701651 11.15234375 126.93359375 C10.34216797 127.91585937 10.34216797 127.91585937 9.515625 128.91796875 C-1.53075309 141.28224444 -18.81610241 146.4695161 -34.84765625 147.93359375 C-54.9403043 148.97011924 -74.77263715 145.98130228 -90.84765625 132.93359375 C-93.53515625 130.49609375 -93.53515625 130.49609375 -95.84765625 127.93359375 C-96.65976562 127.12728516 -96.65976562 127.12728516 -97.48828125 126.3046875 C-105.77763965 117.67294256 -108.66673136 108.74284263 -109.84765625 96.93359375 C-98.62765625 96.93359375 -87.40765625 96.93359375 -75.84765625 96.93359375 C-74.52765625 100.56359375 -73.20765625 104.19359375 -71.84765625 107.93359375 C-69.16704774 112.19135861 -66.41878286 114.02309172 -61.91015625 116.18359375 C-60.38068359 116.93382812 -60.38068359 116.93382812 -58.8203125 117.69921875 C-48.32406267 122.05771408 -34.6654828 121.14446706 -24.2421875 117.06640625 C-18.76906178 114.47716243 -15.90424935 111.67040609 -13.84765625 105.93359375 C-13.08608767 100.84408665 -13.29744914 95.9788105 -16.21655273 91.54760742 C-23.12804361 84.70853151 -33.85042959 82.61515451 -43.03515625 80.80859375 C-45.41545953 80.30774267 -47.79566805 79.80644109 -50.17578125 79.3046875 C-51.31853516 79.06991699 -52.46128906 78.83514648 -53.63867188 78.59326172 C-90.77484258 70.95921324 -90.77484258 70.95921324 -101.63671875 55.01171875 C-107.65028135 44.69166938 -109.79567207 33.7052307 -107.1640625 21.85546875 C-102.92380667 9.25786222 -93.91859613 0.40695476 -82.34765625 -5.81640625 C-56.7633424 -18.15410724 -23.24025881 -16.86433047 0 0 Z " fill="#1B1718" transform="translate(623.84765625,67.06640625)"/>
<path d="M0 0 C12.21 0 24.42 0 37 0 C37 58.08 37 116.16 37 176 C70.99 176 104.98 176 140 176 C140 186.23 140 196.46 140 207 C93.8 207 47.6 207 0 207 C0 138.69 0 70.38 0 0 Z " fill="#1B1718" transform="translate(0,4)"/>
<path d="M0 0 C11.22 0 22.44 0 34 0 C34 50.82 34 101.64 34 154 C22.45 154 10.9 154 -1 154 C-1.02254571 134.06854763 -1.04097841 114.13710553 -1.05181217 94.20564365 C-1.05697546 84.9517884 -1.06401878 75.69794162 -1.07543945 66.4440918 C-1.08538529 58.38143802 -1.09185319 50.31879037 -1.09408849 42.25613064 C-1.09539577 37.98431479 -1.0984827 33.71251649 -1.10573006 29.44070625 C-1.11248869 25.42464044 -1.11461728 21.40859949 -1.11310768 17.39252853 C-1.11338408 15.91423215 -1.11539013 14.43593499 -1.11920547 12.95764351 C-1.12414021 10.94801043 -1.12239814 8.93836419 -1.12025452 6.9287262 C-1.12117631 5.80137338 -1.1220981 4.67402056 -1.12304783 3.51250553 C-1 1 -1 1 0 0 Z " fill="#1B1718" transform="translate(159,57)"/>
<path d="M0 0 C4.87572895 3.53490349 8.5096693 7.0510164 10.5 12.8125 C11.24013986 19.21200196 11.28312706 25.37502558 7.97265625 31.05859375 C4.28808206 35.44685319 -0.84385869 38.76634378 -6.5 39.8125 C-12.07099967 40.24103844 -16.68127137 39.65649474 -21.5 36.8125 C-27.32720805 31.63656814 -30.10915558 26.7860849 -30.875 19 C-30.70637143 13.49849289 -28.75649094 8.29826008 -25.0390625 4.203125 C-17.74439769 -2.09176342 -9.1261025 -3.0963562 0 0 Z " fill="#1B1718" transform="translate(185.5,1.1875)"/>
<path d="M0 0 C4.14869616 3.59553667 6.68002266 6.45365401 7.37109375 11.953125 C7.51810582 19.25184212 7.14469364 24.53200594 2 30 C-3.13986208 33.88623719 -8.62240215 34.83186059 -15 34 C-20.25989907 32.24670031 -24.03889374 29.78332549 -27 25 C-29.51927666 19.20566368 -29.78496234 13.88742584 -27.875 7.875 C-25.77700634 2.7685626 -22.42642928 0.34092144 -17.625 -2.3125 C-11.00247697 -4.04697032 -5.97243868 -3.26793815 0 0 Z M-20 4 C-23.16458887 7.84882431 -24.90172466 10.98795772 -25 16 C-24.06828153 20.7245547 -22.92039438 24.10205426 -19.4375 27.5 C-15.24729709 30.07858641 -11.88878663 30.62654125 -7 30 C-3.09702952 28.65015843 -0.50059809 26.694378 1.9375 23.3125 C3.29811757 19.07057464 3.72721281 15.41070379 3 11 C0.50586109 6.35574134 -1.94125067 2.68624978 -7 1 C-12.23503836 0.60490277 -15.59928724 1.06619149 -20 4 Z " fill="#1A1718" transform="translate(953,59)"/>
<path d="M0 0 C11.26368117 -0.271414 11.26368117 -0.271414 16 2 C17 3 17 3 17.0625 5.0390625 C17.041875 5.89242187 17.02125 6.74578125 17 7.625 C16.95106718 11.88215496 17.27145161 15.81084675 18 20 C15.69 20 13.38 20 11 20 C10.9175 19.21625 10.835 18.4325 10.75 17.625 C10.27193661 14.85250896 10.27193661 14.85250896 7.9375 13.6875 C7.298125 13.460625 6.65875 13.23375 6 13 C6 15.31 6 17.62 6 20 C4.02 20 2.04 20 0 20 C0 13.4 0 6.8 0 0 Z M6 5 C6 6.32 6 7.64 6 9 C7.65 8.67 9.3 8.34 11 8 C11 7.34 11 6.68 11 6 C9.35 5.67 7.7 5.34 6 5 Z " fill="#1B1718" transform="translate(934,64)"/>
</svg>
